<?xml version="1.0" encoding="UTF-8"?>
<!DOCTYPE svg PUBLIC "-//W3C//DTD SVG 1.1//EN" "http://www.w3.org/Graphics/SVG/1.1/DTD/svg11.dtd">
<!-- Creator: CorelDRAW X6 -->
<svg xmlns="http://www.w3.org/2000/svg" xml:space="preserve" width="0.403331in" height="0.116661in" version="1.1" style="shape-rendering:geometricPrecision; text-rendering:geometricPrecision; image-rendering:optimizeQuality; fill-rule:evenodd; clip-rule:evenodd"
viewBox="0 0 403 117"
 xmlns:xlink="http://www.w3.org/1999/xlink">
 <defs>
  <style type="text/css">
   <![CDATA[
    .fil10 {fill:#2D3F65;fill-rule:nonzero}
    .fil0 {fill:url(#id0)}
    .fil1 {fill:url(#id1)}
    .fil2 {fill:url(#id2)}
    .fil3 {fill:url(#id3)}
    .fil4 {fill:url(#id4)}
    .fil5 {fill:url(#id5)}
    .fil6 {fill:url(#id6)}
    .fil7 {fill:url(#id7)}
    .fil8 {fill:url(#id8)}
    .fil9 {fill:url(#id9)}
   ]]>
  </style>
  <linearGradient id="id0" gradientUnits="userSpaceOnUse" x1="24.9134" y1="58.3307" x2="103.697" y2="58.3307">
   <stop offset="0" style="stop-color:#2D3F65"/>
   <stop offset="1" style="stop-color:#1D2B4E"/>
  </linearGradient>
  <linearGradient id="id1" gradientUnits="userSpaceOnUse" x1="44.1378" y1="24.4685" x2="76.4134" y2="24.4685">
   <stop offset="0" style="stop-color:#C3060A"/>
   <stop offset="1" style="stop-color:#E95647"/>
  </linearGradient>
  <linearGradient id="id2" gradientUnits="userSpaceOnUse" xlink:href="#id1" x1="145.047" y1="44.315" x2="145.047" y2="12.5">
  </linearGradient>
  <linearGradient id="id3" gradientUnits="userSpaceOnUse" xlink:href="#id1" x1="174.382" y1="44.315" x2="174.382" y2="12.5">
  </linearGradient>
  <linearGradient id="id4" gradientUnits="userSpaceOnUse" xlink:href="#id1" x1="204.969" y1="44.315" x2="204.969" y2="12.5">
  </linearGradient>
  <linearGradient id="id5" gradientUnits="userSpaceOnUse" xlink:href="#id1" x1="234.984" y1="45.0394" x2="234.984" y2="11.7717">
  </linearGradient>
  <linearGradient id="id6" gradientUnits="userSpaceOnUse" xlink:href="#id1" x1="263.823" y1="44.315" x2="263.823" y2="12.5">
  </linearGradient>
  <linearGradient id="id7" gradientUnits="userSpaceOnUse" xlink:href="#id1" x1="296.11" y1="45.0866" x2="296.11" y2="11.7283">
  </linearGradient>
  <linearGradient id="id8" gradientUnits="userSpaceOnUse" xlink:href="#id1" x1="332.535" y1="44.315" x2="332.535" y2="12.5">
  </linearGradient>
  <linearGradient id="id9" gradientUnits="userSpaceOnUse" xlink:href="#id1" x1="366.031" y1="44.315" x2="366.031" y2="12.5">
  </linearGradient>
 </defs>
 <g id="Layer_x0020_1">
  <metadata id="CorelCorpID_0Corel-Layer"/>
  <g id="_237587344">
   <polygon class="fil0" points="104,82 104,64 94,57 72,42 94,20 94,41 104,31 104,8 92,8 57,43 65,49 94,69 94,76 86,81 54,60 59,55 51,49 35,66 35,8 25,8 25,82 29,85 35,79 47,67 77,87 64,96 41,81 36,90 55,102 65,108 74,102 87,93 94,89 96,87 "/>
   <polygon class="fil1" points="44,8 44,41 76,8 "/>
   <polygon class="fil2" points="131,44 138,44 138,32 150,44 159,44 145,28 158,13 149,13 138,25 138,13 131,13 "/>
   <polygon class="fil3" points="162,44 187,44 187,38 169,38 169,31 185,31 185,25 169,25 169,19 186,19 186,13 162,13 "/>
   <polygon class="fil4" points="201,44 208,44 208,32 221,13 213,13 205,25 197,13 189,13 201,32 "/>
   <path class="fil5" d="M228 13c-2,1 -4,2 -5,3l0 0c-1,1 -2,3 -2,5l0 0c0,3 1,5 3,7l0 0c2,2 5,3 10,3l0 0c2,0 4,1 5,1l0 0c1,1 2,1 2,2l0 0c0,1 -1,2 -2,3l0 0c-1,1 -3,1 -4,1l0 0c-4,0 -7,-1 -10,-3l0 0 -4 5c2,1 4,3 6,3l0 0c2,1 5,1 8,1l0 0c3,0 5,0 7,-1l0 0c2,-1 4,-2 5,-4l0 0c1,-2 2,-3 2,-5 0,-3 -1,-5 -3,-7l0 0c-2,-2 -5,-3 -10,-3l0 0c-2,0 -4,-1 -5,-1l0 0c-1,-1 -1,-1 -1,-2l0 0c0,-1 1,-2 2,-2l0 0c1,-1 3,-1 4,-1l0 0c3,0 6,1 8,3l0 0 4 -5c-2,-1 -3,-2 -6,-3l0 0c-2,-1 -4,-1 -6,-1 -3,0 -5,0 -7,1l0 0z"/>
   <polygon class="fil6" points="260,44 268,44 268,19 277,19 277,13 250,13 250,19 260,19 "/>
   <path class="fil7" d="M287 14c-3,1 -5,3 -6,6l0 0c-1,3 -2,5 -2,9 0,3 1,6 2,9l0 0c1,3 3,4 6,6l0 0c3,1 6,2 9,2l0 0c3,0 6,-1 9,-2l0 0c3,-1 5,-3 6,-6l0 0c1,-3 2,-5 2,-9l0 0c0,-3 -1,-6 -2,-9l0 0c-1,-3 -3,-4 -6,-6l0 0c-3,-1 -6,-2 -9,-2 -3,0 -6,1 -9,2zm4 23c-1,-1 -3,-2 -3,-4l0 0c-1,-2 -1,-3 -1,-5l0 0c0,-2 0,-4 1,-5l0 0c1,-2 2,-3 3,-4l0 0c1,-1 3,-1 5,-1l0 0c2,0 4,0 5,1l0 0c1,1 3,2 3,4l0 0c1,2 1,3 1,5l0 0c0,2 0,4 -1,5l0 0c-1,2 -2,3 -3,4l0 0c-1,1 -3,1 -5,1l0 0c-2,0 -4,0 -5,-1l0 0z"/>
   <polygon class="fil8" points="318,44 326,44 326,33 326,25 340,44 347,44 347,13 339,13 339,24 339,32 325,13 318,13 "/>
   <polygon class="fil9" points="354,44 378,44 378,38 361,38 361,31 377,31 377,25 361,25 361,19 378,19 378,13 354,13 "/>
   <path class="fil10" d="M132 70c-1,0 -2,-1 -3,-2l2 -3c2,1 3,2 5,2 1,0 2,0 2,-1 1,0 1,-1 1,-1 0,-1 0,-1 -1,-1 -1,0 -1,-1 -3,-1 -2,0 -4,-1 -5,-2 -1,-1 -2,-2 -2,-4 0,-1 0,-2 1,-3 1,-1 1,-1 3,-2 1,0 2,-1 4,-1 1,0 2,0 4,1 1,0 2,1 3,1l-2 3c-1,-1 -3,-1 -4,-1 -1,0 -2,0 -2,1 -1,0 -1,1 -1,1 0,1 0,1 1,1 1,0 1,1 3,1 2,0 4,1 5,2 1,1 2,2 2,4 0,1 0,2 -1,3 -1,1 -1,1 -3,2 -1,0 -2,1 -4,1 -1,0 -3,0 -4,-1z"/>
   <polygon class="fil10" points="159,53 159,56 154,56 154,70 150,70 150,56 144,56 144,53 "/>
   <path class="fil10" d="M172 57c0,0 -1,-1 -2,-1l-4 0 0 5 4 0c1,0 2,0 2,-1 0,0 1,-1 1,-2 0,-1 0,-1 -1,-2zm-4 8l-2 0 0 6 -4 0 0 -17 8 0c1,0 2,0 3,1 1,0 2,1 2,2 1,1 1,2 1,3 0,1 0,2 -1,3 -1,1 -2,2 -3,2l5 6 -5 0 -4 -6z"/>
   <path class="fil10" d="M188 57l-3 7 6 0 -3 -7zm6 13l-1 -3 -9 0 -1 3 -4 0 8 -17 4 0 8 17 -4 0z"/>
   <polygon class="fil10" points="212,53 212,56 206,56 206,70 202,70 202,56 197,56 197,53 "/>
   <polygon class="fil10" points="218,67 228,67 228,70 214,70 214,53 228,53 228,56 218,56 218,60 227,60 227,63 218,63 "/>
   <path class="fil10" d="M247 60l0 8c-1,1 -2,2 -3,2 -1,1 -3,1 -4,1 -2,0 -3,0 -5,-1 -1,-1 -2,-2 -3,-3 -1,-1 -1,-3 -1,-5 0,-2 0,-3 1,-5 1,-1 2,-2 3,-3 1,-1 3,-1 5,-1 1,0 3,0 4,1 1,0 2,1 3,2l-2 2c-1,-1 -1,-1 -2,-1 -1,0 -1,0 -2,0 -2,0 -3,1 -4,2 -1,1 -1,2 -1,4 0,1 0,2 1,3 0,1 1,2 2,2 1,0 2,1 3,1 2,0 3,0 4,-1l0 -3 -5 0 0 -3 8 0z"/>
   <polygon class="fil10" points="250,53 254,53 254,70 250,70 "/>
   <path class="fil10" d="M262 69c-1,-1 -3,-2 -3,-3 -1,-1 -1,-3 -1,-5 0,-2 0,-3 1,-5 1,-1 2,-2 3,-3 1,-1 3,-1 5,-1 3,0 5,1 7,3l-3 3c-1,-1 -2,-2 -4,-2 -1,0 -2,0 -3,1 -1,0 -1,1 -2,2 0,1 -1,2 -1,3 0,1 0,2 1,3 0,1 1,1 2,2 1,0 2,1 3,1 1,0 2,0 2,0 1,0 1,-1 2,-1l2 3c-2,2 -4,3 -7,3 -2,0 -4,0 -5,-1z"/>
   <path class="fil10" d="M133 95c-1,-1 -3,-2 -3,-3 -1,-1 -1,-3 -1,-5 0,-2 0,-3 1,-5 1,-1 2,-2 3,-3 1,-1 3,-1 5,-1 3,0 5,1 7,3l-3 3c-1,-1 -2,-2 -4,-2 -1,0 -2,0 -3,1 -1,0 -1,1 -2,2 0,1 -1,2 -1,3 0,1 0,2 1,3 0,1 1,1 2,2 1,0 2,1 3,1 1,0 2,0 2,0 1,0 1,-1 2,-1l2 3c-2,2 -4,3 -7,3 -2,0 -4,0 -5,-1z"/>
   <path class="fil10" d="M158 92c1,0 1,-1 2,-2 0,-1 1,-2 1,-3 0,-1 0,-2 -1,-3 0,-1 -1,-1 -2,-2 -1,0 -2,-1 -3,-1 -1,0 -2,0 -3,1 -1,0 -1,1 -2,2 0,1 -1,2 -1,3 0,1 0,2 1,3 0,1 1,1 2,2 1,0 2,1 3,1 1,0 2,0 3,-1zm-8 3c-1,-1 -3,-2 -3,-3 -1,-1 -1,-3 -1,-5 0,-2 0,-3 1,-5 1,-1 2,-2 3,-3 1,-1 3,-1 5,-1 2,0 4,0 5,1 1,1 3,2 3,3 1,1 1,3 1,5 0,2 0,3 -1,5 -1,1 -2,2 -3,3 -1,1 -3,1 -5,1 -2,0 -4,0 -5,-1z"/>
   <polygon class="fil10" points="179,79 183,79 183,96 180,96 172,85 172,90 172,96 168,96 168,79 171,79 179,90 179,85 "/>
   <path class="fil10" d="M190 96c-1,0 -2,-1 -3,-2l2 -3c2,1 3,2 5,2 1,0 2,0 2,-1 1,0 1,-1 1,-1 0,-1 0,-1 -1,-1 -1,0 -1,-1 -3,-1 -2,0 -4,-1 -5,-2 -1,-1 -2,-2 -2,-4 0,-1 0,-2 1,-3 1,-1 1,-1 3,-2 1,0 2,-1 4,-1 1,0 2,0 4,1 1,0 2,1 3,1l-2 3c-1,-1 -3,-1 -4,-1 -1,0 -2,0 -2,0 -1,0 -1,1 -1,1 0,1 0,1 1,1 1,0 1,1 3,1 2,0 4,1 5,2 1,1 2,2 2,4 0,1 0,2 -1,3 -1,1 -1,1 -3,2 -1,0 -2,1 -4,1 -1,0 -3,0 -4,-1z"/>
   <path class="fil10" d="M206 94c-1,-1 -2,-3 -2,-6l0 -10 4 0 0 10c0,1 0,2 1,3 1,1 2,1 3,1 1,0 2,0 3,-1 1,-1 1,-2 1,-3l0 -10 4 0 0 10c0,2 -1,4 -2,6 -1,1 -3,2 -6,2 -3,0 -4,-1 -6,-2z"/>
   <polygon class="fil10" points="224,79 228,79 228,92 236,92 236,96 224,96 "/>
   <polygon class="fil10" points="250,79 250,82 245,82 245,96 241,96 241,82 235,82 235,79 "/>
   <path class="fil10" d="M259 83l-3 7 6 0 -3 -7zm6 13l-1 -3 -9 0 -1 3 -4 0 8 -17 4 0 8 17 -4 0z"/>
   <polygon class="fil10" points="283,79 287,79 287,96 283,96 275,85 275,90 275,96 271,96 271,79 275,79 283,90 283,85 "/>
   <polygon class="fil10" points="304,79 304,82 299,82 299,96 295,96 295,82 289,82 289,79 "/>
   <path class="fil10" d="M309 96c-1,0 -2,-1 -3,-2l2 -3c2,1 3,2 5,2 1,0 2,0 2,-1 1,0 1,-1 1,-1 0,-1 0,-1 -1,-1 -1,0 -1,-1 -3,-1 -2,0 -4,-1 -5,-2 -1,-1 -2,-2 -2,-4 0,-1 0,-2 1,-3 1,-1 1,-1 3,-2 1,0 2,-1 4,-1 1,0 2,0 4,1 1,0 2,1 3,1l-2 3c-1,-1 -3,-1 -4,-1 -1,0 -2,0 -2,0 -1,0 -1,1 -1,1 0,1 0,1 1,1 1,0 1,1 3,1 2,0 4,1 5,2 1,1 2,2 2,4 0,1 0,2 -1,3 -1,1 -1,1 -3,2 -1,0 -2,1 -4,1 -1,0 -3,0 -4,-1z"/>
   <polygon class="fil10" points="330,79 334,79 334,92 342,92 342,96 330,96 "/>
   <polygon class="fil10" points="345,79 349,79 349,92 358,92 358,96 345,96 "/>
   <path class="fil10" d="M364 95c-1,-1 -3,-2 -3,-3 -1,-1 -1,-3 -1,-5 0,-2 0,-3 1,-5 1,-1 2,-2 3,-3 1,-1 3,-1 5,-1 3,0 5,1 7,3l-3 3c-1,-1 -2,-2 -4,-2 -1,0 -2,0 -3,1 -1,0 -1,1 -2,2 0,1 -1,2 -1,3 0,1 0,2 1,3 0,1 1,1 2,2 1,0 2,1 3,1 1,0 2,0 2,0 1,0 1,-1 2,-1l2 3c-2,2 -4,3 -7,3 -2,0 -4,0 -5,-1z"/>
  </g>
 </g>
</svg>
