<?xml version="1.0" encoding="utf-8"?>
<!-- Generator: Adobe Illustrator 23.0.3, SVG Export Plug-In . SVG Version: 6.00 Build 0)  -->
<svg version="1.1" id="Layer_1" xmlns="http://www.w3.org/2000/svg" xmlns:xlink="http://www.w3.org/1999/xlink" x="0px" y="0px"
	 viewBox="0 0 180 120" style="enable-background:new 0 0 180 120;" xml:space="preserve">
<style type="text/css">
	.st0{clip-path:url(#SVGID_2_);fill:url(#SVGID_3_);}
	.st1{clip-path:url(#SVGID_5_);fill:url(#SVGID_6_);}
	.st2{clip-path:url(#SVGID_8_);fill:url(#SVGID_9_);}
	.st3{clip-path:url(#SVGID_11_);fill:url(#SVGID_12_);}
	.st4{clip-path:url(#SVGID_14_);fill:url(#SVGID_15_);}
	.st5{clip-path:url(#SVGID_17_);fill:url(#SVGID_18_);}
	.st6{clip-path:url(#SVGID_20_);fill:url(#SVGID_21_);}
	.st7{clip-path:url(#SVGID_23_);fill:url(#SVGID_24_);}
	.st8{clip-path:url(#SVGID_26_);fill:url(#SVGID_27_);}
	.st9{clip-path:url(#SVGID_29_);fill:url(#SVGID_30_);}
	.st10{fill:#2E4066;}
</style>
<g>
	<defs>
		<polygon id="SVGID_1_" points="45.34,54.16 45.34,45.22 35.98,54.58 45.34,61.16 49.57,64.13 49.57,71.9 46.21,74.17 45.34,74.75 
			42.37,76.75 36.65,80.6 32.81,83.18 28.53,80.4 20.38,75.09 22.7,71.52 32.37,77.82 38.09,73.97 25.06,65.49 19.85,70.71 
			17.42,73.14 15.62,71.91 15.62,40.09 19.85,40.09 19.85,64.73 26.84,57.74 30.25,60.31 28.15,62.41 41.93,71.38 45.34,69.09 
			45.34,66.37 32.92,57.64 29.4,55.18 44.49,40.09 49.57,40.14 49.57,49.95 		"/>
	</defs>
	<clipPath id="SVGID_2_">
		<use xlink:href="#SVGID_1_"  style="overflow:visible;"/>
	</clipPath>
	
		<linearGradient id="SVGID_3_" gradientUnits="userSpaceOnUse" x1="-328.2271" y1="356.9847" x2="-327.9994" y2="356.9847" gradientTransform="matrix(149.08 0 0 -149.08 48947.7188 53280.9297)">
		<stop  offset="0" style="stop-color:#2E4066"/>
		<stop  offset="1" style="stop-color:#1C2B4E"/>
	</linearGradient>
	<rect x="15.62" y="40.09" class="st0" width="33.95" height="43.09"/>
</g>
<g>
	<defs>
		<polygon id="SVGID_4_" points="23.9,54 23.9,40.09 37.81,40.09 		"/>
	</defs>
	<clipPath id="SVGID_5_">
		<use xlink:href="#SVGID_4_"  style="overflow:visible;"/>
	</clipPath>
	
		<linearGradient id="SVGID_6_" gradientUnits="userSpaceOnUse" x1="-326.1326" y1="356.1526" x2="-325.9049" y2="356.1526" gradientTransform="matrix(61.0796 0 0 -61.0796 19943.9648 21800.7168)">
		<stop  offset="0" style="stop-color:#C22026"/>
		<stop  offset="1" style="stop-color:#EA5747"/>
	</linearGradient>
	<rect x="23.9" y="40.09" class="st1" width="13.91" height="13.91"/>
</g>
<g>
	<defs>
		<polygon id="SVGID_7_" points="73.48,55.6 69.3,55.6 64.49,50.15 64.49,55.6 61.3,55.6 61.3,41.89 64.49,41.89 64.49,47.26 
			68.99,41.89 72.95,41.89 67.17,48.61 		"/>
	</defs>
	<clipPath id="SVGID_8_">
		<use xlink:href="#SVGID_7_"  style="overflow:visible;"/>
	</clipPath>
	
		<linearGradient id="SVGID_9_" gradientUnits="userSpaceOnUse" x1="-330.0216" y1="356.1065" x2="-329.7939" y2="356.1065" gradientTransform="matrix(0 -99.322 -99.322 0 35436.5938 -32716.7285)">
		<stop  offset="0" style="stop-color:#C22026"/>
		<stop  offset="1" style="stop-color:#EA5747"/>
	</linearGradient>
	<rect x="61.3" y="41.89" class="st2" width="12.18" height="13.71"/>
</g>
<g>
	<defs>
		<polygon id="SVGID_10_" points="77.8,52.9 85.36,52.9 85.36,55.6 74.69,55.6 74.69,41.89 85.15,41.89 85.15,44.57 77.8,44.57 
			77.8,47.35 84.75,47.35 84.75,49.94 77.8,49.94 		"/>
	</defs>
	<clipPath id="SVGID_11_">
		<use xlink:href="#SVGID_10_"  style="overflow:visible;"/>
	</clipPath>
	
		<linearGradient id="SVGID_12_" gradientUnits="userSpaceOnUse" x1="-330.0216" y1="356.5381" x2="-329.7939" y2="356.5381" gradientTransform="matrix(0 -99.322 -99.322 0 35492.1055 -32716.7285)">
		<stop  offset="0" style="stop-color:#C22026"/>
		<stop  offset="1" style="stop-color:#EA5747"/>
	</linearGradient>
	<rect x="74.69" y="41.89" class="st3" width="10.67" height="13.71"/>
</g>
<g>
	<defs>
		<polygon id="SVGID_13_" points="100.28,41.89 94.7,50.23 94.7,55.6 91.51,55.6 91.51,50.23 86.13,41.89 89.89,41.89 93.14,47.22 
			96.47,41.89 		"/>
	</defs>
	<clipPath id="SVGID_14_">
		<use xlink:href="#SVGID_13_"  style="overflow:visible;"/>
	</clipPath>
	
		<linearGradient id="SVGID_15_" gradientUnits="userSpaceOnUse" x1="-330.0216" y1="356.9882" x2="-329.7939" y2="356.9882" gradientTransform="matrix(0 -99.322 -99.322 0 35549.9805 -32716.7285)">
		<stop  offset="0" style="stop-color:#C22026"/>
		<stop  offset="1" style="stop-color:#EA5747"/>
	</linearGradient>
	<rect x="86.13" y="41.89" class="st4" width="14.16" height="13.71"/>
</g>
<g>
	<defs>
		<path id="SVGID_16_" d="M103.34,42.11c-0.85,0.35-1.51,0.85-1.98,1.49c-0.47,0.64-0.7,1.38-0.7,2.21c0,1.24,0.43,2.19,1.3,2.86
			c0.87,0.67,2.24,1.1,4.1,1.31c0.97,0.1,1.67,0.28,2.11,0.53c0.44,0.25,0.67,0.59,0.67,1.04c0,0.47-0.24,0.84-0.71,1.12
			c-0.48,0.27-1.12,0.41-1.93,0.41c-1.62,0-3.04-0.48-4.25-1.43l-1.66,2.33c0.76,0.61,1.65,1.09,2.69,1.43
			c1.04,0.34,2.12,0.51,3.24,0.51c1.14,0,2.14-0.18,3.02-0.54c0.87-0.36,1.55-0.87,2.04-1.53c0.48-0.66,0.72-1.42,0.72-2.28
			c0-1.24-0.46-2.22-1.37-2.93c-0.91-0.71-2.3-1.17-4.15-1.38c-0.97-0.12-1.65-0.29-2.07-0.53c-0.41-0.24-0.62-0.57-0.62-1
			c0-0.44,0.24-0.8,0.71-1.06c0.48-0.26,1.11-0.39,1.91-0.39c1.29,0,2.47,0.37,3.54,1.12l1.51-2.25c-0.69-0.5-1.49-0.88-2.4-1.16
			c-0.91-0.27-1.84-0.41-2.79-0.41C105.17,41.58,104.19,41.75,103.34,42.11"/>
	</defs>
	<clipPath id="SVGID_17_">
		<use xlink:href="#SVGID_16_"  style="overflow:visible;"/>
	</clipPath>
	
		<linearGradient id="SVGID_18_" gradientUnits="userSpaceOnUse" x1="-330.0216" y1="357.4299" x2="-329.7939" y2="357.4299" gradientTransform="matrix(0 -99.322 -99.322 0 35606.7852 -32716.7285)">
		<stop  offset="0" style="stop-color:#C22026"/>
		<stop  offset="1" style="stop-color:#EA5747"/>
	</linearGradient>
	<rect x="100.28" y="41.58" class="st5" width="11.71" height="14.33"/>
</g>
<g>
	<defs>
		<polygon id="SVGID_19_" points="112.78,41.89 112.78,44.69 116.95,44.69 116.95,55.6 120.16,55.6 120.16,44.69 124.35,44.69 
			124.35,41.89 		"/>
	</defs>
	<clipPath id="SVGID_20_">
		<use xlink:href="#SVGID_19_"  style="overflow:visible;"/>
	</clipPath>
	
		<linearGradient id="SVGID_21_" gradientUnits="userSpaceOnUse" x1="-330.0216" y1="357.8542" x2="-329.7939" y2="357.8542" gradientTransform="matrix(0 -99.322 -99.322 0 35661.3516 -32716.7285)">
		<stop  offset="0" style="stop-color:#C22026"/>
		<stop  offset="1" style="stop-color:#EA5747"/>
	</linearGradient>
	<rect x="112.78" y="41.89" class="st6" width="11.57" height="13.71"/>
</g>
<g>
	<defs>
		<path id="SVGID_22_" d="M130.3,52.53c-0.63-0.36-1.11-0.86-1.46-1.52c-0.35-0.65-0.52-1.41-0.52-2.27c0-0.86,0.17-1.62,0.52-2.27
			c0.35-0.65,0.83-1.16,1.46-1.52c0.63-0.36,1.35-0.54,2.17-0.54s1.55,0.18,2.18,0.54c0.63,0.36,1.12,0.87,1.47,1.52
			c0.35,0.65,0.52,1.41,0.52,2.27c0,0.86-0.17,1.62-0.52,2.27c-0.35,0.65-0.84,1.16-1.47,1.52c-0.63,0.36-1.36,0.54-2.18,0.54
			S130.93,52.89,130.3,52.53 M128.59,42.45c-1.12,0.59-1.98,1.43-2.59,2.52c-0.61,1.08-0.91,2.34-0.91,3.78
			c0,1.44,0.3,2.7,0.91,3.78c0.61,1.08,1.47,1.92,2.59,2.52c1.12,0.59,2.41,0.89,3.89,0.89c1.48,0,2.77-0.3,3.89-0.89
			c1.12-0.59,1.98-1.43,2.59-2.52c0.61-1.08,0.91-2.34,0.91-3.78c0-1.44-0.3-2.7-0.91-3.78c-0.61-1.08-1.47-1.92-2.59-2.52
			c-1.12-0.59-2.41-0.89-3.89-0.89C131,41.56,129.71,41.86,128.59,42.45"/>
	</defs>
	<clipPath id="SVGID_23_">
		<use xlink:href="#SVGID_22_"  style="overflow:visible;"/>
	</clipPath>
	
		<linearGradient id="SVGID_24_" gradientUnits="userSpaceOnUse" x1="-330.0216" y1="358.3293" x2="-329.7939" y2="358.3293" gradientTransform="matrix(0 -99.322 -99.322 0 35722.457 -32716.7285)">
		<stop  offset="0" style="stop-color:#C22026"/>
		<stop  offset="1" style="stop-color:#EA5747"/>
	</linearGradient>
	<rect x="125.09" y="41.56" class="st7" width="14.77" height="14.37"/>
</g>
<g>
	<defs>
		<polygon id="SVGID_25_" points="151.1,41.89 151.1,46.75 151.14,50.41 144.93,41.89 142.05,41.89 142.05,55.6 145.24,55.6 
			145.24,50.82 145.21,47.12 151.41,55.6 154.29,55.6 154.29,41.89 		"/>
	</defs>
	<clipPath id="SVGID_26_">
		<use xlink:href="#SVGID_25_"  style="overflow:visible;"/>
	</clipPath>
	
		<linearGradient id="SVGID_27_" gradientUnits="userSpaceOnUse" x1="-330.0216" y1="358.8652" x2="-329.7939" y2="358.8652" gradientTransform="matrix(0 -99.322 -99.322 0 35791.3828 -32716.7285)">
		<stop  offset="0" style="stop-color:#C22026"/>
		<stop  offset="1" style="stop-color:#EA5747"/>
	</linearGradient>
	<rect x="142.05" y="41.89" class="st8" width="12.24" height="13.71"/>
</g>
<g>
	<defs>
		<polygon id="SVGID_28_" points="157.27,41.89 157.27,55.6 167.94,55.6 167.94,52.9 160.38,52.9 160.38,49.94 167.33,49.94 
			167.33,47.35 160.38,47.35 160.38,44.57 167.73,44.57 167.73,41.89 		"/>
	</defs>
	<clipPath id="SVGID_29_">
		<use xlink:href="#SVGID_28_"  style="overflow:visible;"/>
	</clipPath>
	
		<linearGradient id="SVGID_30_" gradientUnits="userSpaceOnUse" x1="-330.0216" y1="359.3581" x2="-329.7939" y2="359.3581" gradientTransform="matrix(0 -99.322 -99.322 0 35854.7656 -32716.7285)">
		<stop  offset="0" style="stop-color:#C22026"/>
		<stop  offset="1" style="stop-color:#EA5747"/>
	</linearGradient>
	<rect x="157.27" y="41.89" class="st9" width="10.67" height="13.71"/>
</g>
<path class="st10" d="M61.62,66.65c-0.57-0.19-1.06-0.45-1.47-0.78l0.91-1.27c0.66,0.52,1.44,0.78,2.32,0.78
	c0.44,0,0.79-0.07,1.05-0.22c0.26-0.15,0.39-0.35,0.39-0.61c0-0.24-0.12-0.43-0.36-0.57c-0.24-0.14-0.63-0.23-1.16-0.29
	c-1.02-0.11-1.77-0.35-2.24-0.72c-0.47-0.36-0.71-0.88-0.71-1.56c0-0.46,0.13-0.86,0.39-1.21c0.26-0.35,0.62-0.62,1.08-0.81
	c0.46-0.19,1-0.29,1.61-0.29c0.52,0,1.03,0.07,1.52,0.22c0.5,0.15,0.93,0.36,1.31,0.63l-0.82,1.23c-0.59-0.41-1.23-0.61-1.94-0.61
	c-0.44,0-0.78,0.07-1.04,0.21c-0.26,0.14-0.39,0.34-0.39,0.58c0,0.24,0.11,0.42,0.34,0.55c0.22,0.13,0.6,0.22,1.13,0.29
	c1.01,0.11,1.77,0.37,2.27,0.75c0.5,0.39,0.75,0.92,0.75,1.6c0,0.47-0.13,0.89-0.4,1.25c-0.26,0.36-0.64,0.64-1.11,0.83
	c-0.48,0.2-1.03,0.29-1.65,0.29C62.78,66.93,62.19,66.83,61.62,66.65"/>
<polygon class="st10" points="73.47,59.26 73.47,60.8 71.18,60.8 71.18,66.76 69.43,66.76 69.43,60.8 67.15,60.8 67.15,59.26 "/>
<path class="st10" d="M77.39,64.28h-1.02v2.47h-1.76v-7.49h3.65c0.54,0,1.02,0.11,1.42,0.32c0.41,0.21,0.72,0.51,0.94,0.89
	c0.22,0.39,0.33,0.83,0.33,1.33c0,0.57-0.15,1.06-0.44,1.47c-0.3,0.41-0.72,0.7-1.26,0.87l2.12,2.62H79.3L77.39,64.28z M78.93,61.04
	c-0.2-0.19-0.49-0.28-0.86-0.28h-1.7v2.11h1.7c0.38,0,0.67-0.09,0.87-0.27c0.2-0.18,0.3-0.44,0.3-0.78
	C79.23,61.49,79.13,61.23,78.93,61.04"/>
<path class="st10" d="M88.33,66.76l-0.56-1.35h-3.69l-0.56,1.35h-1.87l3.36-7.49h1.87l3.34,7.49H88.33z M85.94,60.95l-1.23,2.95
	h2.44L85.94,60.95z"/>
<polygon class="st10" points="96.13,59.26 96.13,60.8 93.84,60.8 93.84,66.76 92.08,66.76 92.08,60.8 89.8,60.8 89.8,59.26 "/>
<polygon class="st10" points="98.98,65.28 103.11,65.28 103.11,66.76 97.27,66.76 97.27,59.26 102.99,59.26 102.99,60.73 
	98.98,60.73 98.98,62.25 102.78,62.25 102.78,63.66 98.98,63.66 "/>
<path class="st10" d="M111.24,62.33v3.34c-0.38,0.41-0.84,0.72-1.4,0.94c-0.55,0.22-1.16,0.33-1.82,0.33
	c-0.79,0-1.49-0.16-2.08-0.48c-0.6-0.32-1.06-0.78-1.38-1.37c-0.32-0.59-0.49-1.28-0.49-2.07c0-0.76,0.17-1.44,0.51-2.04
	c0.34-0.6,0.82-1.06,1.44-1.39s1.33-0.5,2.12-0.5c0.58,0,1.1,0.1,1.57,0.3c0.47,0.2,0.9,0.5,1.29,0.91l-1.06,1.05
	c-0.24-0.24-0.51-0.42-0.83-0.55c-0.32-0.13-0.64-0.19-0.98-0.19c-0.72,0-1.29,0.22-1.71,0.65c-0.42,0.43-0.63,1.02-0.63,1.76
	c0,0.48,0.09,0.9,0.28,1.26c0.19,0.36,0.45,0.65,0.79,0.85c0.34,0.2,0.74,0.3,1.19,0.3c0.71,0,1.27-0.18,1.69-0.55v-1.15h-2.03v-1.4
	H111.24z"/>
<rect x="112.72" y="59.26" class="st10" width="1.76" height="7.49"/>
<path class="st10" d="M117.76,66.44c-0.61-0.33-1.08-0.79-1.41-1.38c-0.33-0.59-0.5-1.27-0.5-2.04s0.17-1.45,0.51-2.05
	c0.34-0.6,0.81-1.06,1.42-1.38c0.61-0.32,1.3-0.49,2.08-0.49c1.11,0,2.06,0.39,2.85,1.17l-1.08,1.08c-0.48-0.46-1.05-0.68-1.72-0.68
	c-0.45,0-0.85,0.1-1.19,0.29c-0.35,0.2-0.61,0.47-0.8,0.83c-0.19,0.36-0.28,0.77-0.28,1.23c0,0.46,0.09,0.87,0.28,1.23
	c0.19,0.36,0.46,0.63,0.8,0.83c0.35,0.2,0.74,0.29,1.19,0.29c0.36,0,0.7-0.06,1.03-0.19c0.33-0.13,0.61-0.31,0.86-0.56l1.03,1.15
	c-0.81,0.78-1.78,1.17-2.92,1.17C119.08,66.93,118.37,66.76,117.76,66.44"/>
<path class="st10" d="M62.1,77.59c-0.61-0.33-1.08-0.79-1.41-1.38c-0.33-0.59-0.5-1.27-0.5-2.04c0-0.77,0.17-1.45,0.51-2.05
	c0.34-0.6,0.81-1.06,1.42-1.38c0.61-0.32,1.3-0.49,2.08-0.49c1.11,0,2.05,0.39,2.85,1.17l-1.08,1.08c-0.48-0.46-1.05-0.68-1.72-0.68
	c-0.45,0-0.85,0.1-1.19,0.29c-0.35,0.2-0.61,0.47-0.8,0.83c-0.19,0.36-0.28,0.77-0.28,1.23c0,0.46,0.09,0.87,0.28,1.23
	c0.19,0.36,0.46,0.63,0.8,0.83c0.35,0.2,0.74,0.29,1.19,0.29c0.36,0,0.7-0.06,1.03-0.19c0.33-0.13,0.61-0.31,0.86-0.56l1.03,1.15
	c-0.81,0.78-1.78,1.17-2.92,1.17C63.42,78.08,62.71,77.92,62.1,77.59"/>
<path class="st10" d="M69.6,77.61c-0.61-0.32-1.08-0.78-1.41-1.38c-0.33-0.59-0.5-1.28-0.5-2.07c0-0.78,0.17-1.47,0.5-2.07
	c0.33-0.59,0.8-1.05,1.41-1.38c0.61-0.32,1.32-0.49,2.12-0.49c0.81,0,1.51,0.16,2.12,0.49c0.61,0.32,1.08,0.78,1.41,1.38
	c0.33,0.59,0.5,1.28,0.5,2.07c0,0.79-0.17,1.47-0.5,2.07c-0.33,0.59-0.8,1.05-1.41,1.38s-1.32,0.49-2.12,0.49
	C70.92,78.1,70.21,77.93,69.6,77.61 M72.92,76.24c0.35-0.2,0.61-0.47,0.8-0.83c0.19-0.36,0.28-0.77,0.28-1.24
	c0-0.47-0.09-0.88-0.28-1.24c-0.19-0.36-0.46-0.63-0.8-0.83c-0.35-0.2-0.74-0.29-1.19-0.29c-0.45,0-0.85,0.1-1.19,0.29
	c-0.34,0.2-0.61,0.47-0.8,0.83c-0.19,0.36-0.28,0.77-0.28,1.24c0,0.47,0.09,0.88,0.28,1.24c0.19,0.36,0.45,0.63,0.8,0.83
	c0.34,0.2,0.74,0.29,1.19,0.29C72.18,76.53,72.58,76.44,72.92,76.24"/>
<polygon class="st10" points="82.08,70.42 83.82,70.42 83.82,77.91 82.25,77.91 78.86,73.28 78.88,75.3 78.88,77.91 77.13,77.91 
	77.13,70.42 78.71,70.42 82.1,75.08 82.08,73.08 "/>
<path class="st10" d="M86.62,77.81c-0.57-0.19-1.06-0.45-1.47-0.78l0.91-1.27c0.66,0.52,1.44,0.78,2.32,0.78
	c0.44,0,0.79-0.07,1.05-0.22c0.26-0.15,0.39-0.35,0.39-0.61c0-0.24-0.12-0.43-0.36-0.57c-0.24-0.14-0.63-0.23-1.16-0.29
	c-1.02-0.11-1.77-0.35-2.24-0.72c-0.47-0.36-0.71-0.88-0.71-1.56c0-0.46,0.13-0.86,0.39-1.21c0.26-0.35,0.62-0.62,1.08-0.81
	c0.46-0.19,1-0.29,1.61-0.29c0.52,0,1.03,0.07,1.52,0.22c0.5,0.15,0.93,0.36,1.31,0.63l-0.82,1.23c-0.59-0.41-1.23-0.61-1.94-0.61
	c-0.44,0-0.78,0.07-1.04,0.21s-0.39,0.34-0.39,0.58c0,0.24,0.11,0.42,0.34,0.55c0.22,0.13,0.6,0.22,1.13,0.29
	c1.01,0.11,1.77,0.37,2.27,0.75c0.5,0.39,0.75,0.92,0.75,1.6c0,0.47-0.13,0.89-0.4,1.25c-0.26,0.36-0.64,0.64-1.11,0.83
	c-0.48,0.2-1.03,0.29-1.65,0.29C87.78,78.09,87.19,77.99,86.62,77.81"/>
<path class="st10" d="M93.62,77.18c-0.6-0.6-0.89-1.43-0.89-2.5v-4.26h1.76v4.26c0,0.57,0.14,1.02,0.43,1.35
	c0.29,0.33,0.69,0.49,1.21,0.49c0.51,0,0.91-0.16,1.2-0.49c0.29-0.33,0.44-0.78,0.44-1.35v-4.26h1.76v4.26c0,1.07-0.3,1.9-0.89,2.5
	c-0.59,0.6-1.43,0.89-2.5,0.89C95.05,78.07,94.22,77.78,93.62,77.18"/>
<polygon class="st10" points="101.21,70.42 102.97,70.42 102.97,76.33 106.74,76.33 106.74,77.91 101.21,77.91 "/>
<polygon class="st10" points="112.64,70.42 112.64,71.95 110.35,71.95 110.35,77.91 108.6,77.91 108.6,71.95 106.32,71.95 
	106.32,70.42 "/>
<path class="st10" d="M118.89,77.91l-0.56-1.35h-3.69l-0.56,1.35h-1.87l3.36-7.49h1.87l3.34,7.49H118.89z M116.51,72.1l-1.23,2.95
	h2.44L116.51,72.1z"/>
<polygon class="st10" points="126.64,70.42 128.39,70.42 128.39,77.91 126.81,77.91 123.42,73.28 123.44,75.3 123.44,77.91 
	121.7,77.91 121.7,70.42 123.27,70.42 126.66,75.08 126.64,73.08 "/>
<polygon class="st10" points="135.87,70.42 135.87,71.95 133.58,71.95 133.58,77.91 131.82,77.91 131.82,71.95 129.54,71.95 
	129.54,70.42 "/>
<path class="st10" d="M138.01,77.81c-0.57-0.19-1.06-0.45-1.47-0.78l0.91-1.27c0.66,0.52,1.44,0.78,2.32,0.78
	c0.44,0,0.79-0.07,1.05-0.22c0.26-0.15,0.39-0.35,0.39-0.61c0-0.24-0.12-0.43-0.36-0.57c-0.24-0.14-0.63-0.23-1.16-0.29
	c-1.02-0.11-1.77-0.35-2.24-0.72c-0.47-0.36-0.71-0.88-0.71-1.56c0-0.46,0.13-0.86,0.39-1.21c0.26-0.35,0.62-0.62,1.08-0.81
	c0.46-0.19,1-0.29,1.61-0.29c0.52,0,1.03,0.07,1.53,0.22c0.5,0.15,0.93,0.36,1.31,0.63l-0.82,1.23c-0.58-0.41-1.23-0.61-1.94-0.61
	c-0.44,0-0.78,0.07-1.04,0.21c-0.26,0.14-0.39,0.34-0.39,0.58c0,0.24,0.11,0.42,0.34,0.55c0.22,0.13,0.6,0.22,1.13,0.29
	c1.01,0.11,1.77,0.37,2.27,0.75c0.5,0.39,0.75,0.92,0.75,1.6c0,0.47-0.13,0.89-0.4,1.25c-0.26,0.36-0.64,0.64-1.11,0.83
	c-0.48,0.2-1.03,0.29-1.65,0.29C139.17,78.09,138.58,77.99,138.01,77.81"/>
<polygon class="st10" points="146.91,70.42 148.67,70.42 148.67,76.33 152.43,76.33 152.43,77.91 146.91,77.91 "/>
<polygon class="st10" points="153.6,70.42 155.35,70.42 155.35,76.33 159.12,76.33 159.12,77.91 153.6,77.91 "/>
<path class="st10" d="M164.06,78.14c-0.63-0.34-1.12-0.82-1.46-1.43c-0.34-0.61-0.51-1.32-0.51-2.11c0-0.8,0.18-1.5,0.53-2.12
	c0.35-0.62,0.84-1.09,1.47-1.43c0.63-0.34,1.34-0.5,2.15-0.5c1.14,0,2.13,0.4,2.94,1.21l-1.12,1.12c-0.49-0.47-1.09-0.71-1.78-0.71
	c-0.46,0-0.88,0.1-1.23,0.3c-0.36,0.2-0.63,0.49-0.83,0.86c-0.2,0.37-0.29,0.79-0.29,1.27c0,0.48,0.1,0.9,0.29,1.27
	c0.2,0.37,0.47,0.66,0.83,0.86c0.36,0.2,0.77,0.3,1.23,0.3c0.37,0,0.72-0.07,1.06-0.2c0.34-0.13,0.63-0.32,0.89-0.58l1.06,1.18
	c-0.83,0.8-1.84,1.21-3.02,1.21C165.42,78.65,164.69,78.48,164.06,78.14"/>
</svg>
